<?xml version="1.0" encoding="utf-8"?>
<!-- Generator: Adobe Illustrator 22.1.0, SVG Export Plug-In . SVG Version: 6.00 Build 0)  -->
<svg version="1.1" id="Layer_1" xmlns="http://www.w3.org/2000/svg" xmlns:xlink="http://www.w3.org/1999/xlink" x="0px" y="0px"
	 viewBox="0 0 500 500" style="enable-background:new 0 0 500 500;" xml:space="preserve">
<style type="text/css">
	.st0{fill:#12100B;}
</style>
<g>
	<polygon class="st0" points="148.3,286.9 251.3,389.9 351.7,289.5 337.9,275.7 251.3,362.3 162.1,273.1 	"/>
	<g>
		<path class="st0" d="M93.4,177.8c0,9.1-7.3,16.4-16.4,16.4s-16.4-7.3-16.4-16.4c0-9.1,7.3-16.4,16.4-16.4
			C86.1,161.4,93.4,168.7,93.4,177.8"/>
		<path class="st0" d="M28.8,177.4c0,14.4,4.8,26.3,14.5,35.5c9.6,9.3,20.7,13.9,33.3,13.9c13.7,0,25.2-4.7,34.6-14.2
			c9.4-9.6,14.1-21.2,14.1-34.9c0-13.9-4.6-25.5-13.9-34.9c-9.2-9.5-20.7-14.2-34.3-14.2s-25,4.7-34.4,14.2
			C33.5,152.1,28.8,163.6,28.8,177.4 M9,177.1c0-18.3,6.7-34.1,20.2-47.3C42.6,116.6,58.7,110,77.5,110c18.6,0,34.5,6.6,47.8,19.9
			s20,29.2,20,47.9s-6.7,34.6-20.1,47.7c-13.4,13.1-29.7,19.7-48.7,19.7c-16.8,0-31.9-5.8-45.3-17.5C16.4,214.9,9,198,9,177.1"/>
		<path class="st0" d="M414.2,112.5V191c0,11.2,1.8,19.4,5.5,24.6c5.5,7.5,13.1,11.2,23,11.2c10,0,17.7-3.7,23.1-11.2
			c3.7-5,5.5-13.2,5.5-24.6v-78.5H491v83.9c0,13.7-4.3,25-12.8,33.9c-9.6,9.9-21.4,14.9-35.5,14.9s-25.8-5-35.4-14.9
			c-8.6-8.9-12.8-20.2-12.8-33.9v-83.9C394.5,112.5,414.2,112.5,414.2,112.5z"/>
	</g>
	<polygon class="st0" points="241.9,131 189.6,131 189.6,162.3 240.3,162.3 240.3,180.8 189.6,180.8 189.6,224.4 241.9,224.4 
		241.9,242.9 169.9,242.9 169.9,112.5 241.9,112.5 	"/>
	<polygon class="st0" points="290.8,163.5 347,163.5 347,112.5 366.7,112.5 366.7,242.9 347,242.9 347,182 290.8,182 290.8,242.9 
		271.1,242.9 271.1,112.5 290.8,112.5 	"/>
</g>
</svg>
